<?xml version="1.0" encoding="UTF-8" standalone="no" ?>
<!DOCTYPE svg PUBLIC "-//W3C//DTD SVG 1.1//EN" "http://www.w3.org/Graphics/SVG/1.1/DTD/svg11.dtd">
<svg xmlns="http://www.w3.org/2000/svg" xmlns:xlink="http://www.w3.org/1999/xlink" version="1.1" width="120" height="120" viewBox="0 0 120 120" xml:space="preserve">
<desc>Created with Fabric.js 4.6.0</desc>
<defs>
</defs>
<g transform="matrix(4.18 0 0 4.85 24.08 60.86)" id="apva8sGUHvlMcxoEJi38b"  >
<path style="stroke: rgb(102,103,171); stroke-width: 3; stroke-dasharray: none; stroke-linecap: butt; stroke-dashoffset: 0; stroke-linejoin: miter; stroke-miterlimit: 4; fill: rgb(255,255,255); fill-opacity: 0; fill-rule: nonzero; opacity: 1;" vector-effect="non-scaling-stroke"  transform=" translate(0, 0)" d="M -4.92635 8.47348 L -4.92635 -8.47348 L 4.92635 -8.47348" stroke-linecap="round" />
</g>
<g transform="matrix(0 0.13 -0.13 0 49.47 19.78)" id="oikpvlqnW0zTN3f8jYgoD"  >
<path style="stroke: none; stroke-width: 1; stroke-dasharray: none; stroke-linecap: butt; stroke-dashoffset: 0; stroke-linejoin: miter; stroke-miterlimit: 4; fill: rgb(102,103,171); fill-rule: nonzero; opacity: 1;" vector-effect="non-scaling-stroke"  transform=" translate(-40, -40)" d="M 60 40 L 80 80 L 40 80 L 0 80 L 20 40 L 40 0 L 60 40 z" stroke-linecap="round" />
</g>
<g transform="matrix(1 0 0 1 58.36 59.13)" id="cFlrOW61_9Q-3UY5JOS82"  >
<path style="stroke: none; stroke-width: 1; stroke-dasharray: none; stroke-linecap: butt; stroke-dashoffset: 0; stroke-linejoin: miter; stroke-miterlimit: 4; fill: rgb(17,24,39); fill-rule: nonzero; opacity: 1;" vector-effect="non-scaling-stroke"  transform=" translate(-64.18, -80.89)" d="M 52.957421875 110.87 L 17.766015625 110.87 L 17.766015625 50.90515625 L 27.56875 50.90515625 L 27.56875 102.461796875 L 52.957421875 102.461796875 L 52.957421875 110.87 Z M 110.584375 50.90515625 L 110.584375 110.87 L 100.740625 110.87 L 100.740625 83.840703125 L 73.09609375 83.840703125 L 73.09609375 110.87 L 63.293359375 110.87 L 63.293359375 50.90515625 L 73.09609375 50.90515625 L 73.09609375 75.4325 L 100.740625 75.4325 L 100.740625 50.90515625 L 110.584375 50.90515625 Z" stroke-linecap="round" />
</g>
<g transform="matrix(-4.18 0 0 -4.85 92.85 58.77)" id="Lz0lsXPXVYca3TIdGpW2Y"  >
<path style="stroke: rgb(102,103,171); stroke-width: 3; stroke-dasharray: none; stroke-linecap: butt; stroke-dashoffset: 0; stroke-linejoin: miter; stroke-miterlimit: 4; fill: rgb(255,255,255); fill-opacity: 0; fill-rule: nonzero; opacity: 1;" vector-effect="non-scaling-stroke"  transform=" translate(0, 0)" d="M -4.92635 8.47348 L -4.92635 -8.47348 L 4.92635 -8.47348" stroke-linecap="round" />
</g>
<g transform="matrix(0 -0.13 0.13 0 67.46 99.85)" id="zRTKXQ8y60NqYPhxl2wN7"  >
<path style="stroke: none; stroke-width: 1; stroke-dasharray: none; stroke-linecap: butt; stroke-dashoffset: 0; stroke-linejoin: miter; stroke-miterlimit: 4; fill: rgb(102,103,171); fill-rule: nonzero; opacity: 1;" vector-effect="non-scaling-stroke"  transform=" translate(-40, -40)" d="M 60 40 L 80 80 L 40 80 L 0 80 L 20 40 L 40 0 L 60 40 z" stroke-linecap="round" />
</g>
</svg>